<svg class="svg-icon" style="width: 1em; height: 1em;vertical-align: middle;fill: currentColor;overflow: hidden;" viewBox="0 0 1024 1024" version="1.1" xmlns="http://www.w3.org/2000/svg"><path d="M512 552.2432c-112.5376 0-182.8352 64.6144-222.208 190.1568h444.416c-39.3728-125.5424-109.6704-190.1568-222.208-190.1568z m0-51.2c148.7872 0 238.4896 93.7984 280.832 260.6592A25.6 25.6 0 0 1 768 793.6H256a25.6 25.6 0 0 1-24.832-31.8976c42.3424-166.912 132.096-260.6592 280.832-260.6592z m0 0c73.3696 0 133.0176-60.5184 133.0176-135.3216C645.0176 290.9184 585.3696 230.4 512 230.4c-73.3696 0-133.0176 60.5184-133.0176 135.3216 0 74.8032 59.648 135.3216 133.0176 135.3216z m0 51.2c-101.8368 0-184.2176-83.6096-184.2176-186.5216S410.2144 179.2 512 179.2c101.8368 0 184.2176 83.6096 184.2176 186.5216s-82.432 186.5216-184.2176 186.5216z"  /></svg>